<mxfile host="app.diagrams.net" modified="2022-11-04T06:35:22.400Z" agent="5.0 (X11; Linux x86_64) AppleWebKit/537.36 (KHTML, like Gecko) Chrome/106.0.0.0 Safari/537.36" etag="N21Vh2XvV2dN3OfDUiqm" version="20.5.1" type="github">
  <diagram id="1wG6GU_qegTCm62ZsVmx" name="第 1 页">
    <mxGraphModel dx="1422" dy="748" grid="1" gridSize="10" guides="1" tooltips="1" connect="1" arrows="1" fold="1" page="1" pageScale="1" pageWidth="827" pageHeight="1169" math="0" shadow="0">
      <root>
        <mxCell id="0" />
        <mxCell id="1" parent="0" />
        <mxCell id="w3OnJ2Ki7yz4PXjGZW5x-21" value="" style="group" vertex="1" connectable="0" parent="1">
          <mxGeometry x="234" y="170" width="360" height="180" as="geometry" />
        </mxCell>
        <mxCell id="w3OnJ2Ki7yz4PXjGZW5x-18" value="" style="rounded=1;whiteSpace=wrap;html=1;" vertex="1" parent="w3OnJ2Ki7yz4PXjGZW5x-21">
          <mxGeometry width="120" height="180" as="geometry" />
        </mxCell>
        <mxCell id="w3OnJ2Ki7yz4PXjGZW5x-8" value="客户端" style="text;html=1;align=center;verticalAlign=middle;resizable=0;points=[];autosize=1;strokeColor=none;fillColor=none;" vertex="1" parent="w3OnJ2Ki7yz4PXjGZW5x-21">
          <mxGeometry x="10" y="10" width="60" height="30" as="geometry" />
        </mxCell>
        <mxCell id="w3OnJ2Ki7yz4PXjGZW5x-9" value="" style="rounded=1;whiteSpace=wrap;html=1;" vertex="1" parent="w3OnJ2Ki7yz4PXjGZW5x-21">
          <mxGeometry x="240" width="120" height="180" as="geometry" />
        </mxCell>
        <mxCell id="w3OnJ2Ki7yz4PXjGZW5x-10" value="服务端" style="text;html=1;align=center;verticalAlign=middle;resizable=0;points=[];autosize=1;strokeColor=none;fillColor=none;" vertex="1" parent="w3OnJ2Ki7yz4PXjGZW5x-21">
          <mxGeometry x="250" y="10" width="60" height="30" as="geometry" />
        </mxCell>
        <mxCell id="w3OnJ2Ki7yz4PXjGZW5x-11" value="认证接口" style="whiteSpace=wrap;html=1;aspect=fixed;" vertex="1" parent="w3OnJ2Ki7yz4PXjGZW5x-21">
          <mxGeometry x="260" y="90" width="80" height="80" as="geometry" />
        </mxCell>
        <mxCell id="w3OnJ2Ki7yz4PXjGZW5x-16" style="edgeStyle=orthogonalEdgeStyle;rounded=0;orthogonalLoop=1;jettySize=auto;html=1;exitX=1;exitY=0.3333333333333333;exitDx=0;exitDy=0;exitPerimeter=0;entryX=0;entryY=0.25;entryDx=0;entryDy=0;" edge="1" parent="w3OnJ2Ki7yz4PXjGZW5x-21" source="w3OnJ2Ki7yz4PXjGZW5x-14" target="w3OnJ2Ki7yz4PXjGZW5x-11">
          <mxGeometry relative="1" as="geometry" />
        </mxCell>
        <mxCell id="w3OnJ2Ki7yz4PXjGZW5x-19" value="HTTPS" style="edgeLabel;html=1;align=center;verticalAlign=middle;resizable=0;points=[];" vertex="1" connectable="0" parent="w3OnJ2Ki7yz4PXjGZW5x-16">
          <mxGeometry x="0.368" relative="1" as="geometry">
            <mxPoint as="offset" />
          </mxGeometry>
        </mxCell>
        <mxCell id="w3OnJ2Ki7yz4PXjGZW5x-14" value="Actor" style="shape=umlActor;verticalLabelPosition=bottom;verticalAlign=top;html=1;outlineConnect=0;" vertex="1" parent="w3OnJ2Ki7yz4PXjGZW5x-21">
          <mxGeometry x="30" y="60" width="20" height="30" as="geometry" />
        </mxCell>
        <mxCell id="w3OnJ2Ki7yz4PXjGZW5x-17" style="edgeStyle=orthogonalEdgeStyle;rounded=0;orthogonalLoop=1;jettySize=auto;html=1;exitX=1;exitY=0.3333333333333333;exitDx=0;exitDy=0;exitPerimeter=0;entryX=0;entryY=0.75;entryDx=0;entryDy=0;" edge="1" parent="w3OnJ2Ki7yz4PXjGZW5x-21" source="w3OnJ2Ki7yz4PXjGZW5x-15" target="w3OnJ2Ki7yz4PXjGZW5x-11">
          <mxGeometry relative="1" as="geometry" />
        </mxCell>
        <mxCell id="w3OnJ2Ki7yz4PXjGZW5x-20" value="HTTPS" style="edgeLabel;html=1;align=center;verticalAlign=middle;resizable=0;points=[];" vertex="1" connectable="0" parent="w3OnJ2Ki7yz4PXjGZW5x-17">
          <mxGeometry x="0.3106" y="-3" relative="1" as="geometry">
            <mxPoint as="offset" />
          </mxGeometry>
        </mxCell>
        <mxCell id="w3OnJ2Ki7yz4PXjGZW5x-15" value="Actor" style="shape=umlActor;verticalLabelPosition=bottom;verticalAlign=top;html=1;outlineConnect=0;" vertex="1" parent="w3OnJ2Ki7yz4PXjGZW5x-21">
          <mxGeometry x="30" y="115" width="20" height="30" as="geometry" />
        </mxCell>
      </root>
    </mxGraphModel>
  </diagram>
</mxfile>
